<?xml version="1.0" standalone="no"?>
<!DOCTYPE svg PUBLIC "-//W3C//DTD SVG 20010904//EN"
 "http://www.w3.org/TR/2001/REC-SVG-20010904/DTD/svg10.dtd">
<svg version="1.0" xmlns="http://www.w3.org/2000/svg"
 width="260.000000pt" height="260.000000pt" viewBox="0 0 260.000000 260.000000"
 preserveAspectRatio="xMidYMid meet">
<metadata>
Created by potrace 1.11, written by Peter Selinger 2001-2013
</metadata>
<g transform="translate(0.000000,260.000000) scale(0.100000,-0.100000)"
fill="#000000" stroke="none">
<path d="M1217 2592 c-4 -6 -11 -50 -22 -142 -3 -19 -9 -69 -15 -110 -6 -41
-13 -91 -16 -110 -3 -19 -7 -53 -10 -75 -2 -22 -9 -67 -14 -100 -5 -33 -12
-82 -15 -110 -4 -27 -13 -95 -21 -150 -8 -55 -17 -120 -20 -145 -2 -25 -7 -56
-9 -70 -3 -14 -7 -41 -10 -60 -2 -19 -11 -87 -20 -150 -9 -63 -18 -133 -21
-155 -3 -22 -7 -51 -9 -65 -16 -100 -25 -163 -30 -210 -3 -30 -7 -66 -10 -80
-2 -14 -7 -43 -10 -65 -3 -22 -8 -55 -11 -73 l-6 -32 268 2 268 3 8 35 c12 52
19 102 19 128 -1 12 4 22 9 22 6 0 10 5 10 11 0 5 -5 7 -12 3 -7 -4 -8 -3 -4
5 7 11 14 54 21 126 1 17 3 30 4 30 1 0 4 20 7 44 7 73 13 94 26 103 10 6 10
8 0 8 -10 0 -12 8 -7 29 11 52 20 120 23 174 2 20 6 26 15 21 8 -6 8 -3 -1 9
-8 9 -10 21 -6 28 7 12 11 34 19 119 7 66 14 120 20 160 3 19 6 40 7 47 1 7 6
9 12 6 6 -4 5 0 -2 9 -10 13 -10 17 3 22 8 3 15 11 15 18 0 9 -3 9 -11 -2 -7
-11 -8 -2 -3 30 3 25 6 55 6 67 0 12 6 24 14 27 8 3 14 11 14 18 0 9 -3 9 -10
-2 -8 -11 -10 -4 -7 25 2 22 5 45 8 50 3 6 7 30 8 55 2 40 6 69 16 120 1 8 9
14 16 12 9 -1 8 2 -3 11 -10 8 -14 18 -8 27 4 7 6 20 3 29 -4 14 -3 14 6 1 9
-13 11 -13 11 2 0 9 -5 20 -11 24 -8 5 -4 13 12 26 15 13 18 18 7 15 -14 -5
-16 0 -11 31 3 20 13 43 22 51 15 13 15 13 -1 8 -10 -4 -18 -2 -18 3 0 6 3 10
8 10 4 0 8 25 8 55 l2 54 -264 1 c-144 0 -265 -4 -267 -8z"/>
<path d="M1765 2520 c-16 -7 -17 -9 -3 -9 9 -1 20 4 23 9 7 11 7 11 -20 0z"/>
<path d="M1811 2518 c-1 -21 15 -32 25 -17 4 7 3 9 -4 5 -6 -3 -13 2 -15 11
-4 16 -5 16 -6 1z"/>
<path d="M1791 2505 c1 -19 18 -51 18 -35 0 8 -4 22 -9 30 -5 8 -9 11 -9 5z"/>
<path d="M1769 2485 c8 -16 5 -22 -12 -32 -12 -7 -17 -12 -11 -13 5 0 18 6 27
13 16 11 16 14 2 32 -16 20 -16 20 -6 0z"/>
<path d="M1830 2469 c0 -5 5 -7 10 -4 6 3 10 8 10 11 0 2 -4 4 -10 4 -5 0 -10
-5 -10 -11z"/>
<path d="M1810 2440 c0 -5 5 -10 10 -10 6 0 10 5 10 10 0 6 -4 10 -10 10 -5 0
-10 -4 -10 -10z"/>
<path d="M1760 2422 c8 -4 16 -15 18 -26 2 -12 -1 -16 -9 -10 -8 4 -10 3 -5
-5 11 -17 26 -3 22 22 -2 13 -11 23 -22 24 -14 2 -15 1 -4 -5z"/>
<path d="M1801 2404 c0 -11 3 -14 6 -6 3 7 2 16 -1 19 -3 4 -6 -2 -5 -13z"/>
<path d="M1815 2379 c-4 -6 -5 -12 -2 -15 2 -3 7 2 10 11 7 17 1 20 -8 4z"/>
<path d="M1740 2359 c-12 -9 -12 -10 3 -5 15 5 17 2 12 -17 -5 -20 -5 -20 6
-4 14 23 0 40 -21 26z"/>
<path d="M1786 2335 c-11 -8 -16 -18 -12 -22 4 -4 11 -1 15 6 5 7 14 11 20 7
7 -5 9 -1 5 8 -3 9 -7 16 -8 16 0 0 -10 -7 -20 -15z"/>
<path d="M1730 2291 c-6 -12 -7 -21 -1 -21 10 0 24 30 17 37 -2 3 -9 -5 -16
-16z"/>
<path d="M1791 2291 c-8 -14 -7 -20 3 -24 10 -4 12 0 8 15 -4 16 -2 19 8 13 9
-5 11 -4 6 3 -10 16 -14 15 -25 -7z"/>
<path d="M1757 2287 c-3 -8 -2 -20 3 -26 5 -9 8 -4 8 13 0 29 -3 32 -11 13z"/>
<path d="M1741 2242 c-1 -13 -5 -21 -10 -17 -6 3 -15 -5 -21 -17 -10 -21 -10
-21 3 -6 8 10 17 15 20 11 9 -8 20 23 14 39 -3 7 -6 3 -6 -10z"/>
<path d="M1776 2223 c-9 -10 -7 -41 3 -48 5 -3 13 0 17 6 4 8 3 9 -4 5 -8 -5
-12 0 -12 13 0 14 5 19 15 15 8 -4 15 -4 15 -1 0 8 -28 16 -34 10z"/>
<path d="M1744 2195 c-4 -8 -9 -13 -13 -11 -4 3 -13 1 -21 -4 -11 -7 -9 -9 8
-7 20 1 55 37 37 37 -3 0 -8 -7 -11 -15z"/>
<path d="M1750 2159 c0 -5 5 -7 12 -3 8 5 9 1 4 -12 -5 -14 -4 -16 5 -7 6 6 8
16 5 22 -9 14 -26 14 -26 0z"/>
<path d="M1710 2150 c-10 -6 -11 -10 -2 -10 6 0 15 1 18 3 3 1 12 -9 19 -23 8
-14 14 -20 15 -14 0 7 -8 21 -17 33 -13 15 -22 18 -33 11z"/>
<path d="M1777 2115 c-4 -8 -3 -16 1 -19 4 -3 9 4 9 15 2 23 -3 25 -10 4z"/>
<path d="M1749 2073 c12 -8 25 -12 28 -9 4 3 1 6 -6 6 -7 0 -10 4 -7 8 2 4 -5
9 -16 9 -21 2 -21 2 1 -14z"/>
<path d="M1693 2057 c-3 -5 -2 -11 1 -14 3 -4 6 -2 6 3 0 5 10 10 23 11 21 2
21 1 3 -13 -11 -8 -15 -14 -9 -14 7 0 15 5 18 10 4 6 12 7 18 3 8 -4 7 -1 -1
9 -14 17 -50 20 -59 5z"/>
<path d="M1691 2025 c0 -5 6 -19 14 -29 8 -11 15 -15 15 -10 0 6 -7 19 -15 30
-8 10 -14 15 -14 9z"/>
<path d="M1735 2020 c-7 -11 1 -44 12 -47 6 -2 14 1 18 6 3 6 0 9 -7 6 -9 -4
-14 2 -15 16 -2 17 1 18 13 8 8 -6 17 -9 21 -5 3 3 1 6 -6 6 -7 0 -10 4 -7 8
3 5 -2 9 -10 9 -8 0 -17 -3 -19 -7z"/>
<path d="M1680 1960 c-8 -5 -10 -10 -5 -10 6 0 17 5 25 10 8 5 11 10 5 10 -5
0 -17 -5 -25 -10z"/>
<path d="M1722 1952 c-13 -4 -23 -11 -22 -17 1 -5 -7 -13 -17 -17 -16 -7 -16
-8 2 -5 11 2 19 9 18 15 -2 7 6 12 16 12 11 0 23 5 26 10 3 6 5 10 3 9 -2 -1
-13 -4 -26 -7z"/>
<path d="M1750 1929 c0 -5 5 -7 10 -4 6 3 10 8 10 11 0 2 -4 4 -10 4 -5 0 -10
-5 -10 -11z"/>
<path d="M1720 1915 c-7 -9 -11 -17 -9 -20 3 -2 10 5 17 15 14 24 10 26 -8 5z"/>
<path d="M1737 1903 c-10 -10 -8 -33 3 -33 5 0 6 7 3 17 -5 12 -3 14 7 8 9 -5
11 -4 6 3 -8 14 -10 14 -19 5z"/>
<path d="M1674 1878 c-4 -6 -3 -8 4 -4 5 3 12 1 14 -6 2 -6 15 -13 29 -15 18
-2 20 -1 9 6 -8 5 -18 7 -22 5 -4 -3 -8 2 -8 10 0 19 -16 21 -26 4z"/>
<path d="M1676 1835 c-9 -26 -7 -32 5 -12 6 10 9 21 6 23 -2 3 -7 -2 -11 -11z"/>
<path d="M1689 1805 c-11 -16 -19 -26 -19 -20 0 5 -5 4 -11 -2 -9 -9 -6 -19
11 -40 13 -15 20 -20 17 -11 -4 11 0 21 11 27 9 6 12 11 5 11 -6 0 -15 -5 -18
-10 -7 -12 -25 -4 -25 11 0 6 4 7 10 4 5 -3 15 5 21 19 7 14 15 23 19 21 4 -2
15 1 24 8 16 12 15 13 -5 13 -14 0 -29 -12 -40 -31z"/>
<path d="M1730 1780 c0 -5 5 -10 11 -10 5 0 7 5 4 10 -3 6 -8 10 -11 10 -2 0
-4 -4 -4 -10z"/>
<path d="M1712 1751 c-11 -7 -10 -9 3 -14 9 -4 14 -3 10 2 -3 5 1 12 7 14 7 3
9 6 3 6 -5 0 -16 -3 -23 -8z"/>
<path d="M1650 1720 c0 -5 5 -10 10 -10 6 0 10 5 10 10 0 6 -4 10 -10 10 -5 0
-10 -4 -10 -10z"/>
<path d="M1697 1716 c-3 -8 -3 -17 0 -20 10 -10 33 -7 33 4 0 5 -7 7 -15 4
-11 -5 -13 -2 -9 10 3 9 4 16 1 16 -3 0 -7 -6 -10 -14z"/>
<path d="M1633 1686 c0 -7 9 -18 19 -25 11 -7 18 -7 18 -1 0 5 -4 10 -10 10
-5 0 -10 7 -10 15 0 8 -4 15 -8 15 -5 0 -9 -6 -9 -14z"/>
<path d="M1670 1691 c0 -9 30 -24 36 -18 2 1 -6 8 -16 15 -11 7 -20 8 -20 3z"/>
<path d="M1715 1659 c-4 -6 -5 -12 -2 -15 2 -3 7 2 10 11 7 17 1 20 -8 4z"/>
<path d="M1680 1645 c0 -8 4 -15 10 -15 5 0 7 7 4 15 -4 8 -8 15 -10 15 -2 0
-4 -7 -4 -15z"/>
<path d="M1650 1636 c14 -18 13 -19 -2 -13 -10 3 -19 3 -22 -1 -3 -4 4 -8 14
-9 27 -2 33 12 12 28 -16 13 -16 13 -2 -5z"/>
<path d="M1670 1600 c0 -5 8 -6 18 -3 15 6 15 5 4 -10 -13 -15 -16 -15 -38 0
-14 9 -27 13 -31 9 -3 -3 -1 -6 6 -6 7 0 9 -4 6 -10 -3 -5 0 -7 7 -5 9 4 14
-2 14 -15 0 -12 -5 -19 -13 -16 -7 3 -15 1 -17 -3 -3 -5 5 -8 17 -7 16 1 21 7
19 21 -3 17 -2 17 15 5 10 -8 15 -11 11 -6 -4 5 0 15 8 23 8 8 12 19 9 24 -8
12 -35 12 -35 -1z"/>
<path d="M1699 1543 c-13 -16 -12 -17 4 -4 9 7 17 15 17 17 0 8 -8 3 -21 -13z"/>
<path d="M1675 1521 c3 -5 0 -11 -7 -13 -20 -7 -17 -50 4 -56 10 -2 18 -9 18
-15 0 -6 2 -8 5 -5 10 9 -6 37 -19 32 -7 -3 -12 4 -12 16 0 23 6 25 26 8 12
-11 12 -10 2 4 -10 13 -10 17 0 20 8 3 6 7 -6 11 -9 4 -15 3 -11 -2z"/>
<path d="M1628 1513 c7 -3 16 -2 19 1 4 3 -2 6 -13 5 -11 0 -14 -3 -6 -6z"/>
<path d="M1620 1480 c0 -5 5 -10 10 -10 6 0 10 5 10 10 0 6 -4 10 -10 10 -5 0
-10 -4 -10 -10z"/>
<path d="M1635 1440 c27 -12 43 -12 25 0 -8 5 -22 9 -30 9 -10 0 -8 -3 5 -9z"/>
<path d="M1614 1415 c-9 -24 2 -42 25 -41 12 0 21 4 21 8 -2 34 -37 58 -46 33z
m31 -14 c16 -19 16 -20 -4 -18 -13 1 -21 8 -21 19 0 23 3 23 25 -1z"/>
<path d="M1670 1409 c0 -5 5 -7 10 -4 6 3 10 8 10 11 0 2 -4 4 -10 4 -5 0 -10
-5 -10 -11z"/>
<path d="M1595 1360 c3 -5 8 -10 11 -10 2 0 4 5 4 10 0 6 -5 10 -11 10 -5 0
-7 -4 -4 -10z"/>
<path d="M1620 1345 c-14 -17 -9 -50 8 -51 25 -3 26 -6 7 -15 -16 -7 -14 -8 9
-4 27 6 28 5 15 -12 -13 -17 -13 -17 4 -4 18 14 18 15 -4 32 -13 10 -27 15
-31 13 -4 -3 -8 3 -8 13 0 11 8 19 19 20 13 1 18 -3 15 -12 -3 -7 -1 -16 5
-20 7 -4 8 0 4 11 -5 13 -3 15 7 9 9 -5 11 -4 6 3 -14 24 -43 32 -56 17z"/>
<path d="M1594 1286 c3 -16 8 -31 11 -35 3 -3 4 7 1 23 -3 16 -8 31 -11 35 -3
3 -4 -7 -1 -23z"/>
<path d="M1576 1243 c-6 -14 -5 -15 5 -6 7 7 10 15 7 18 -3 3 -9 -2 -12 -12z"/>
<path d="M1620 1240 c0 -5 5 -10 10 -10 6 0 10 5 10 10 0 6 -4 10 -10 10 -5 0
-10 -4 -10 -10z"/>
<path d="M1655 1231 c-3 -5 -2 -12 3 -15 5 -3 9 1 9 9 0 17 -3 19 -12 6z"/>
<path d="M1590 1220 c0 -5 5 -10 10 -10 6 0 10 5 10 10 0 6 -4 10 -10 10 -5 0
-10 -4 -10 -10z"/>
<path d="M1635 1200 c19 -8 18 -11 -7 -14 -18 -2 -21 -25 -3 -32 15 -6 15 -8
-1 -25 -19 -21 -10 -46 12 -28 16 13 13 51 -4 57 -7 2 -12 8 -12 13 0 6 4 8 9
5 11 -7 33 18 24 27 -3 4 -13 7 -22 6 -12 0 -11 -3 4 -9z m-3 -92 c-7 -7 -12
-8 -12 -2 0 14 12 26 19 19 2 -3 -1 -11 -7 -17z"/>
<path d="M1570 1181 c0 -5 7 -12 16 -15 14 -5 15 -4 4 9 -14 17 -20 19 -20 6z"/>
<path d="M1590 1140 c0 -5 5 -10 10 -10 6 0 10 5 10 10 0 6 -4 10 -10 10 -5 0
-10 -4 -10 -10z"/>
<path d="M1570 1101 c0 -9 30 -24 36 -18 2 1 -6 8 -16 15 -11 7 -20 8 -20 3z"/>
<path d="M1550 1091 c0 -10 19 -25 25 -20 1 2 -3 10 -11 17 -8 7 -14 8 -14 3z"/>
<path d="M1630 1080 c-9 -6 -10 -10 -3 -10 6 0 15 5 18 10 8 12 4 12 -15 0z"/>
<path d="M1584 1045 c-3 -13 -11 -23 -17 -22 -6 1 -12 -6 -13 -16 -1 -12 0
-13 3 -2 2 8 9 12 14 9 6 -3 13 3 16 15 3 12 9 21 14 21 5 0 9 5 9 10 0 20
-20 9 -26 -15z"/>
<path d="M1549 1043 c-13 -16 -12 -17 4 -4 16 13 21 21 13 21 -2 0 -10 -8 -17
-17z"/>
<path d="M1614 1019 c-3 -6 -1 -16 5 -22 9 -9 10 -7 5 7 -6 15 -4 17 6 11 9
-5 11 -4 6 3 -9 15 -13 15 -22 1z"/>
<path d="M1571 993 c-1 -18 13 -23 29 -11 12 8 12 9 -2 5 -9 -3 -19 -1 -22 6
-3 9 -5 9 -5 0z"/>
<path d="M1537 960 c-7 -26 11 -36 30 -17 10 10 12 17 4 22 -6 3 -10 1 -9 -6
2 -6 -2 -13 -9 -16 -7 -3 -9 3 -6 16 3 12 3 21 0 21 -2 0 -7 -9 -10 -20z"/>
<path d="M1604 966 c-10 -8 -16 -18 -11 -22 4 -4 7 -2 7 4 0 7 5 12 11 12 5 0
8 -4 4 -9 -3 -5 -2 -12 3 -15 4 -2 8 6 8 20 0 13 0 24 -1 24 -1 0 -10 -6 -21
-14z"/>
<path d="M1565 920 c-3 -6 1 -7 9 -4 18 7 21 14 7 14 -6 0 -13 -4 -16 -10z"/>
<path d="M1575 900 c-3 -5 -4 -10 0 -10 3 0 1 -10 -5 -22 -11 -22 -10 -22 4
-4 9 10 13 22 11 27 -3 4 5 10 17 12 23 4 23 4 1 6 -12 0 -25 -3 -28 -9z"/>
<path d="M1551 884 c0 -11 3 -14 6 -6 3 7 2 16 -1 19 -3 4 -6 -2 -5 -13z"/>
<path d="M1533 843 c2 -22 7 -28 27 -28 16 0 24 5 22 14 -2 9 3 11 15 7 14 -6
15 -4 6 5 -12 12 -37 3 -28 -11 3 -5 -4 -8 -15 -7 -14 1 -18 6 -15 18 3 10 1
20 -4 23 -6 4 -9 -5 -8 -21z"/>
<path d="M1590 866 c0 -2 7 -7 16 -10 8 -3 12 -2 9 4 -6 10 -25 14 -25 6z"/>
<path d="M1595 809 c-4 -6 -5 -12 -2 -15 2 -3 7 2 10 11 7 17 1 20 -8 4z"/>
<path d="M1549 791 c9 -6 10 -11 2 -15 -6 -4 -11 -13 -11 -19 0 -7 5 -4 11 6
5 9 14 17 19 17 5 0 7 -8 4 -17 -5 -15 -4 -16 5 -3 8 11 7 18 -6 28 -9 6 -22
12 -27 12 -6 0 -5 -4 3 -9z"/>
<path d="M1516 775 c-9 -26 -7 -32 5 -12 6 10 9 21 6 23 -2 3 -7 -2 -11 -11z"/>
<path d="M1111 545 c1 -19 18 -51 18 -35 0 8 -4 22 -9 30 -5 8 -9 11 -9 5z"/>
<path d="M1136 539 c3 -5 9 -7 14 -4 4 3 11 0 13 -5 3 -6 4 -5 3 1 -1 7 -10
13 -19 15 -9 1 -15 -2 -11 -7z"/>
<path d="M1230 540 c0 -5 5 -10 10 -10 6 0 10 5 10 10 0 6 -4 10 -10 10 -5 0
-10 -4 -10 -10z"/>
<path d="M1351 545 c1 -19 18 -51 18 -35 0 8 -4 22 -9 30 -5 8 -9 11 -9 5z"/>
<path d="M1529 528 c-6 -12 -6 -18 1 -18 5 0 10 7 10 16 0 8 4 13 9 9 5 -3 12
-2 15 3 3 5 -2 9 -10 9 -8 0 -19 -9 -25 -19z"/>
<path d="M1270 530 c-13 -8 -12 -10 3 -10 9 0 17 5 17 10 0 12 -1 12 -20 0z"/>
<path d="M1400 525 c0 -8 4 -15 10 -15 5 0 7 7 4 15 -4 8 -8 15 -10 15 -2 0
-4 -7 -4 -15z"/>
<path d="M1440 535 c0 -5 5 -17 10 -25 5 -8 10 -10 10 -5 0 6 -5 17 -10 25 -5
8 -10 11 -10 5z"/>
<path d="M1558 509 c-13 -17 -22 -36 -20 -41 2 -6 -5 -8 -14 -4 -10 4 -25 -1
-35 -10 -18 -16 -19 -16 -19 5 0 14 4 20 12 15 6 -4 8 -3 5 3 -4 6 0 13 8 17
16 6 10 36 -7 36 -6 0 -4 -8 3 -17 12 -15 12 -16 -4 -10 -10 4 -16 3 -13 -2 3
-5 -1 -11 -9 -15 -8 -3 -18 2 -23 11 -8 14 -10 14 -15 -1 -4 -9 -11 -16 -17
-16 -6 0 -8 5 -4 12 4 6 3 8 -4 4 -5 -3 -12 -3 -15 1 -2 5 -3 3 -1 -3 1 -6 -8
-11 -21 -11 -17 0 -22 4 -18 16 4 14 3 14 -9 1 -10 -12 -35 -16 -105 -16 -79
0 -89 2 -75 14 10 8 6 8 -10 -2 -25 -15 -28 -15 -38 2 -9 13 -10 13 -7 1 4
-13 -9 -16 -91 -18 -101 -2 -105 -3 -108 -26 -11 -73 -15 -106 -20 -145 -3
-25 -9 -72 -14 -105 -5 -33 -12 -80 -15 -105 -3 -25 -8 -57 -11 -72 l-5 -27
281 0 c210 0 282 3 285 12 6 19 17 90 17 115 0 12 4 22 10 22 5 0 6 -6 2 -12
-5 -10 -3 -10 7 0 11 10 11 14 1 21 -16 9 -8 61 10 73 11 6 11 8 0 8 -9 0 -12
10 -8 33 7 36 19 126 19 143 0 6 9 17 19 23 16 10 19 9 16 -6 -2 -13 3 -17 17
-16 14 1 21 -4 22 -18 2 -17 -1 -18 -13 -8 -8 7 -14 8 -13 3 3 -18 -1 -37 -8
-31 -8 9 -33 -12 -33 -27 0 -6 5 -3 11 6 5 10 16 15 24 12 9 -4 15 0 15 10 0
9 6 15 13 14 7 -2 12 7 12 22 -1 19 -6 25 -21 23 -13 -1 -20 4 -20 17 0 11 7
18 16 17 8 -1 15 1 15 4 0 3 13 22 28 42 15 20 26 37 23 37 -3 0 -16 -14 -28
-31z"/>
<path d="M1080 514 c0 -9 -5 -12 -12 -8 -7 4 -8 3 -4 -4 10 -16 14 -15 26 8 7
14 7 20 0 20 -5 0 -10 -7 -10 -16z"/>
<path d="M1210 520 c8 -5 20 -10 25 -10 6 0 3 5 -5 10 -8 5 -19 10 -25 10 -5
0 -3 -5 5 -10z"/>
<path d="M1315 520 c-3 -5 -2 -10 4 -10 5 0 13 5 16 10 3 6 2 10 -4 10 -5 0
-13 -4 -16 -10z"/>
<path d="M1250 499 c0 -5 5 -7 10 -4 6 3 10 8 10 11 0 2 -4 4 -10 4 -5 0 -10
-5 -10 -11z"/>
<path d="M1290 500 c0 -5 5 -10 11 -10 5 0 7 5 4 10 -3 6 -8 10 -11 10 -2 0
-4 -4 -4 -10z"/>
<path d="M1566 483 c-6 -14 -5 -15 5 -6 7 7 10 15 7 18 -3 3 -9 -2 -12 -12z"/>
<path d="M1557 453 c-10 -9 -9 -23 1 -23 5 0 9 7 9 15 0 17 -1 18 -10 8z"/>
<path d="M1479 408 c-8 -27 -5 -36 9 -30 10 4 12 7 4 10 -7 2 -10 8 -6 13 3 5
3 9 0 9 -3 0 -6 -1 -7 -2z"/>
<path d="M1551 357 c-1 -11 -6 -15 -13 -11 -7 5 -8 3 -3 -5 10 -16 29 2 22 21
-4 8 -6 7 -6 -5z"/>
<path d="M1494 321 c2 -14 9 -27 17 -29 11 -3 12 -2 1 6 -8 5 -13 12 -12 16 1
4 -1 12 -4 19 -2 6 -3 1 -2 -12z"/>
<path d="M1516 327 c3 -10 9 -15 12 -12 3 3 0 11 -7 18 -10 9 -11 8 -5 -6z"/>
<path d="M1535 300 c-3 -5 -1 -10 4 -10 6 0 11 5 11 10 0 6 -2 10 -4 10 -3 0
-8 -4 -11 -10z"/>
<path d="M1451 285 c4 -3 19 -8 35 -11 16 -3 26 -2 23 1 -4 3 -19 8 -35 11
-16 3 -26 2 -23 -1z"/>
<path d="M1516 265 c-9 -26 -7 -32 5 -12 6 10 9 21 6 23 -2 3 -7 -2 -11 -11z"/>
<path d="M1450 260 c0 -5 5 -10 11 -10 5 0 7 5 4 10 -3 6 -8 10 -11 10 -2 0
-4 -4 -4 -10z"/>
<path d="M1481 253 c-1 -6 -4 -20 -7 -30 -5 -17 -5 -17 6 0 6 10 9 23 6 30 -3
9 -5 9 -5 0z"/>
<path d="M1487 209 c-9 -10 -12 -19 -7 -19 6 0 13 7 16 15 5 11 11 12 25 4 10
-5 19 -7 19 -5 0 3 -8 10 -18 15 -14 7 -23 5 -35 -10z"/>
<path d="M1502 187 c-13 -15 -9 -50 5 -54 6 -2 14 1 18 6 3 6 0 9 -7 6 -8 -3
-14 2 -15 14 -1 15 4 19 19 16 16 -4 18 -2 8 10 -15 18 -15 18 -28 2z"/>
<path d="M1451 185 c0 -5 6 -19 14 -29 8 -11 15 -15 15 -10 0 6 -7 19 -15 30
-8 10 -14 15 -14 9z"/>
<path d="M1445 120 c-3 -6 1 -7 9 -4 18 7 21 14 7 14 -6 0 -13 -4 -16 -10z"/>
<path d="M1487 119 c7 -7 15 -10 18 -7 3 3 -2 9 -12 12 -14 6 -15 5 -6 -5z"/>
</g>
</svg>
