<?xml version="1.0" encoding="utf-8"?>
<!-- Generator: Adobe Illustrator 23.0.2, SVG Export Plug-In . SVG Version: 6.00 Build 0)  -->
<svg version="1.1" id="Layer_1" xmlns="http://www.w3.org/2000/svg" xmlns:xlink="http://www.w3.org/1999/xlink" x="0px" y="0px"
	 viewBox="0 0 642 141.72" style="enable-background:new 0 0 642 141.72;" xml:space="preserve">
<style type="text/css">
	.st0{fill:#586371;}
</style>
<g>
	<path class="st0" d="M71.96,136.43c-6.86,3.5-15.38,5.25-25.56,5.25c-7.64,0-14.54-1.4-20.7-4.2c-6.16-2.8-11.26-6.59-15.3-11.36
		c-4.04-4.77-6.94-10.37-8.71-16.8c-1.77-6.43-2.15-13.27-1.13-20.53l0.05-0.38c1.02-7.26,3.32-14.13,6.91-20.62
		c3.58-6.49,8.07-12.15,13.46-16.99c5.39-4.84,11.56-8.65,18.51-11.46c6.95-2.8,14.37-4.2,22.26-4.2c9.67,0,17.48,1.53,23.42,4.58
		c5.93,3.06,10.94,7.26,15.03,12.6L79.76,71.41c-2.83-3.44-5.85-6.17-9.06-8.21c-3.22-2.04-7.43-3.06-12.65-3.06
		c-3.69,0-7.14,0.73-10.33,2.2c-3.2,1.46-6.09,3.47-8.67,6.01c-2.59,2.55-4.72,5.51-6.4,8.88c-1.69,3.37-2.79,6.97-3.33,10.79
		l-0.05,0.38c-0.55,3.95-0.47,7.64,0.26,11.07c0.73,3.44,2.06,6.43,3.99,8.97c1.93,2.55,4.39,4.55,7.37,6.01
		c2.97,1.46,6.44,2.2,10.38,2.2c4.84,0,9.21-0.98,13.11-2.96c3.9-1.97,7.87-4.61,11.9-7.92l14.58,17.18
		C85.11,128.44,78.81,132.93,71.96,136.43z"/>
	<path class="st0" d="M199.91,109.12c-3.71,6.43-8.38,12.06-14.02,16.9c-5.65,4.84-12.04,8.66-19.18,11.46
		c-7.14,2.8-14.72,4.2-22.74,4.2c-7.89,0-15.02-1.37-21.38-4.11c-6.36-2.74-11.66-6.49-15.89-11.27c-4.23-4.77-7.3-10.37-9.19-16.8
		c-1.9-6.43-2.33-13.33-1.29-20.72l0.05-0.38c1.04-7.38,3.41-14.29,7.11-20.72c3.7-6.43,8.38-12.06,14.02-16.9
		c5.64-4.84,12.03-8.65,19.18-11.46c7.14-2.8,14.72-4.2,22.74-4.2c7.89,0,15.02,1.37,21.38,4.1c6.36,2.74,11.66,6.49,15.89,11.27
		c4.23,4.77,7.29,10.38,9.19,16.8c1.9,6.43,2.33,13.34,1.29,20.72l-0.05,0.38C205.98,95.79,203.61,102.7,199.91,109.12z
		 M178.38,88.41c0.54-3.82,0.4-7.41-0.39-10.79c-0.8-3.37-2.23-6.36-4.28-8.97c-2.05-2.61-4.63-4.68-7.72-6.21
		c-3.1-1.53-6.62-2.29-10.56-2.29c-4.2,0-8.03,0.73-11.48,2.2c-3.45,1.46-6.5,3.47-9.15,6.01c-2.65,2.55-4.82,5.51-6.5,8.88
		c-1.69,3.37-2.79,6.97-3.33,10.79l-0.05,0.38c-0.54,3.82-0.41,7.42,0.39,10.79c0.8,3.37,2.22,6.37,4.28,8.97
		c2.05,2.61,4.59,4.68,7.63,6.21c3.03,1.53,6.58,2.29,10.66,2.29c4.2,0,8.03-0.73,11.48-2.2c3.45-1.46,6.5-3.47,9.15-6.01
		c2.65-2.54,4.81-5.5,6.5-8.88c1.68-3.37,2.79-6.97,3.33-10.79L178.38,88.41z"/>
	<path class="st0" d="M272.22,141.72l8-58.22c0.96-7.01,0.16-12.3-2.4-15.87c-2.56-3.57-6.65-5.36-12.25-5.36
		c-5.6,0-10.27,1.79-14.01,5.36c-3.74,3.57-6.09,8.86-7.05,15.87l-8,58.22h-29.02l14.38-104.63h29.02l-2.06,14.96
		c1.96-2.23,4.07-4.36,6.32-6.39c2.25-2.03,4.69-3.83,7.33-5.4c2.63-1.57,5.48-2.82,8.53-3.74c3.05-0.92,6.43-1.38,10.12-1.38
		c11.07,0,19.16,3.45,24.26,10.35c5.1,6.9,6.82,16.4,5.15,28.5l-9.31,67.74H272.22z"/>
	<path class="st0" d="M387.45,123.06c-2.56,4.14-5.8,7.54-9.74,10.22c-3.94,2.67-8.39,4.68-13.35,6.01
		c-4.96,1.34-10.18,2.01-15.65,2.01c-7.26,0-14.5-1.24-21.72-3.72c-7.23-2.48-13.9-6.4-20.02-11.74l15.09-19.09
		c5.03,4.08,10.17,7.13,15.42,9.16c5.25,2.04,10.29,3.06,15.13,3.06c4.2,0,7.38-0.7,9.56-2.1c2.17-1.4,3.42-3.25,3.74-5.54
		l0.05-0.38c0.21-1.53-0.17-2.86-1.16-4.01c-0.98-1.15-2.41-2.13-4.26-2.96c-1.86-0.83-4.01-1.62-6.44-2.39
		c-2.44-0.76-5-1.59-7.67-2.48c-3.42-1.02-6.84-2.26-10.26-3.72c-3.42-1.46-6.43-3.37-9.03-5.73c-2.6-2.35-4.58-5.25-5.94-8.69
		c-1.36-3.44-1.7-7.64-1-12.6l0.05-0.38c0.73-5.22,2.37-9.83,4.91-13.84c2.54-4.01,5.69-7.41,9.45-10.22
		c3.77-2.8,8.01-4.9,12.73-6.3c4.71-1.4,9.68-2.1,14.9-2.1c6.49,0,12.93,1.05,19.32,3.15c6.39,2.1,12.12,5,17.2,8.69L384.87,67.4
		c-4.68-2.93-9.32-5.25-13.91-6.97c-4.6-1.72-8.74-2.58-12.43-2.58c-3.57,0-6.33,0.67-8.3,2c-1.97,1.34-3.1,3.03-3.39,5.06
		l-0.05,0.38c-0.2,1.4,0.2,2.64,1.2,3.72c0.99,1.08,2.38,2.1,4.15,3.05c1.77,0.96,3.84,1.88,6.2,2.77c2.36,0.89,4.87,1.78,7.55,2.67
		c3.4,1.15,6.84,2.51,10.31,4.11c3.47,1.59,6.5,3.53,9.11,5.82c2.6,2.29,4.63,5.09,6.08,8.4c1.44,3.31,1.83,7.32,1.17,12.03
		l-0.05,0.38C391.69,113.99,390.01,118.93,387.45,123.06z"/>
	<path class="st0" d="M396.9,141.72l14.38-104.05h29.02l-14.38,104.05H396.9z M412.1,26.21L415.73,0h30.55l-3.62,26.21H412.1z"/>
	<path class="st0" d="M485.49,141.72l14.38-104.05h29.02l-14.38,104.05H485.49z M500.69,26.21L504.32,0h30.55l-3.62,26.21H500.69z"
		/>
	<path class="st0" d="M634.28,109.12c-3.71,6.43-8.38,12.06-14.02,16.9c-5.65,4.84-12.04,8.66-19.18,11.46
		c-7.14,2.8-14.72,4.2-22.74,4.2c-7.89,0-15.02-1.37-21.38-4.11c-6.36-2.74-11.66-6.49-15.89-11.27c-4.23-4.77-7.3-10.37-9.19-16.8
		c-1.9-6.43-2.33-13.33-1.29-20.72l0.05-0.38c1.04-7.38,3.41-14.29,7.11-20.72c3.7-6.43,8.38-12.06,14.02-16.9
		c5.64-4.84,12.03-8.65,19.18-11.46c7.14-2.8,14.72-4.2,22.74-4.2c7.89,0,15.02,1.37,21.38,4.1c6.36,2.74,11.66,6.49,15.89,11.27
		c4.23,4.77,7.29,10.38,9.19,16.8c1.9,6.43,2.33,13.34,1.29,20.72l-0.05,0.38C640.36,95.79,637.99,102.7,634.28,109.12z
		 M612.76,88.41c0.54-3.82,0.4-7.41-0.39-10.79c-0.8-3.37-2.23-6.36-4.28-8.97c-2.05-2.61-4.63-4.68-7.72-6.21
		c-3.1-1.53-6.62-2.29-10.56-2.29c-4.2,0-8.03,0.73-11.48,2.2c-3.45,1.46-6.5,3.47-9.15,6.01c-2.65,2.55-4.82,5.51-6.5,8.88
		c-1.69,3.37-2.79,6.97-3.33,10.79l-0.05,0.38c-0.54,3.82-0.41,7.42,0.39,10.79c0.8,3.37,2.22,6.37,4.28,8.97
		c2.05,2.61,4.59,4.68,7.63,6.21c3.03,1.53,6.58,2.29,10.66,2.29c4.2,0,8.03-0.73,11.48-2.2c3.45-1.46,6.5-3.47,9.15-6.01
		c2.65-2.54,4.81-5.5,6.5-8.88c1.68-3.37,2.79-6.97,3.33-10.79L612.76,88.41z"/>
	<path class="st0" d="M490.92,0l-14.38,104.05h-29.02L461.89,0H490.92z M475.71,115.51l-3.62,26.21h-30.55l3.62-26.21H475.71z"/>
</g>
</svg>
