<?xml version="1.0"?>
<svg xmlns="http://www.w3.org/2000/svg" id="Layer_1" data-name="Layer 1" viewBox="0 0 512 512" width="512" height="512"><title>Chatbot</title><path d="M330,325.972V265.317A6.719,6.719,0,0,0,323.5,259H273V228.882A5.574,5.574,0,0,0,267.4,223H192V196.949a21.451,21.451,0,1,0-12-.059V223H104.834A5.76,5.76,0,0,0,99,228.882V259H48.726C45.413,259,43,262,43,265.317v60.655a36.146,36.146,0,0,0,0,71.049v85.8A5.933,5.933,0,0,0,48.726,489H323.5c3.314,0,6.5-2.87,6.5-6.183v-85.8c16-3.146,29.47-17.873,29.47-35.524S346,329.118,330,325.972ZM176.65,176.324a9.465,9.465,0,1,1,9.465,9.465A9.476,9.476,0,0,1,176.65,176.324ZM111,235H261v24H111ZM25.53,361.5A24.283,24.283,0,0,1,43,338.291V384.7A24.282,24.282,0,0,1,25.53,361.5ZM318,477H55V271H318Zm12-92.3V338.291a24.147,24.147,0,0,1,0,46.411Z"/><path d="M261,388a6,6,0,0,0-6-6H118a6,6,0,0,0-6,6v60a6,6,0,0,0,6,6H255a6,6,0,0,0,6-6Zm-69,6h23v48H192Zm-12,48H157V394h23Zm-56-48h21v48H124Zm124,48H227V394h21Z"/><path d="M157,315a6,6,0,0,0-6-6H112a6,6,0,0,0-6,6v39a6,6,0,0,0,6,6h39a6,6,0,0,0,6-6Zm-13,32H118V321h26Z"/><path d="M267,315a6,6,0,0,0-6-6H222a6,6,0,0,0-6,6v39a6,6,0,0,0,6,6h39a6,6,0,0,0,6-6Zm-12,32H228V321h27Z"/><path d="M376.633,99.791A22.866,22.866,0,1,0,399.5,122.657,22.892,22.892,0,0,0,376.633,99.791Zm0,33.731A10.866,10.866,0,1,1,387.5,122.657,10.878,10.878,0,0,1,376.633,133.522Z"/><path d="M317.614,99.791a22.866,22.866,0,1,0,22.866,22.866A22.892,22.892,0,0,0,317.614,99.791Zm0,33.731a10.866,10.866,0,1,1,10.866-10.865A10.878,10.878,0,0,1,317.614,133.522Z"/><path d="M435.652,99.791a22.866,22.866,0,1,0,22.866,22.866A22.892,22.892,0,0,0,435.652,99.791Zm0,33.731a10.866,10.866,0,1,1,10.866-10.865A10.878,10.878,0,0,1,435.652,133.522Z"/><path d="M461.951,51.4c-22.908-18.2-53.207-28.217-85.318-28.217S314.223,33.2,291.316,51.4c-23.727,18.847-36.794,44.153-36.794,71.257,0,26.769,12.75,51.787,35.926,70.56l-1.74,44.512a6,6,0,0,0,8.331,5.761l55.195-23.332a149.324,149.324,0,0,0,24.4,1.974c32.108,0,62.408-10.022,85.318-28.219,23.726-18.847,36.793-44.153,36.793-71.256S485.677,70.247,461.951,51.4Zm-7.464,133.116c-20.8,16.519-48.445,25.616-77.858,25.616a140.407,140.407,0,0,1-24.08-2.091,6,6,0,0,0-3.375.383l-48.106,20.335,1.491-38.134a6,6,0,0,0-2.341-4.993l-.158-.122c-.429-.329-.857-.657-1.28-.994-20.8-16.524-32.258-38.494-32.258-61.859S277.978,77.32,298.78,60.8s48.442-25.614,77.853-25.614,57.06,9.1,77.854,25.614,32.257,38.492,32.257,61.86S475.288,167.993,454.487,184.516Z"/></svg>
