<svg id="Capa_1" enable-background="new 0 0 512.231 512.231" height="512" viewBox="0 0 512.231 512.231" width="512" xmlns="http://www.w3.org/2000/svg"><path d="m488.882 100.004h-465.533c-12.874 0-23.349 10.475-23.349 23.35v265.523c0 12.875 10.475 23.35 23.349 23.35h465.533c12.875 0 23.349-10.475 23.349-23.35v-265.523c0-12.875-10.474-23.35-23.349-23.35zm-465.533 15h465.533c4.604 0 8.349 3.745 8.349 8.35v20.52h-482.231v-20.52c0-4.604 3.746-8.35 8.349-8.35zm-8.349 273.873v-230.003h233.616v238.354h-225.267c-4.603-.001-8.349-3.746-8.349-8.351zm473.882 8.35h-225.266v-238.353h233.616v230.004c-.001 4.604-3.746 8.349-8.35 8.349z"/><circle cx="40.028" cy="129.454" r="8.337"/><circle cx="73.756" cy="129.454" r="8.337"/><circle cx="107.484" cy="129.454" r="8.337"/><path d="m212.066 185.624h-15.989c-4.142 0-7.5 3.357-7.5 7.5s3.358 7.5 7.5 7.5h15.989c2.735 0 4.959 2.225 4.959 4.96v144.933c0 2.735-2.225 4.96-4.959 4.96h-15.989c-4.142 0-7.5 3.357-7.5 7.5s3.358 7.5 7.5 7.5h15.989c11.006 0 19.959-8.954 19.959-19.96v-144.934c0-11.005-8.953-19.959-19.959-19.959z"/><path d="m40.028 312.983c4.142 0 7.5-3.357 7.5-7.5v-99.9c0-2.734 2.225-4.959 4.959-4.959h15.989c4.142 0 7.5-3.357 7.5-7.5s-3.358-7.5-7.5-7.5h-15.988c-11.006 0-19.959 8.953-19.959 19.959v99.9c-.001 4.142 3.357 7.5 7.499 7.5z"/><path d="m68.477 355.476h-15.989c-2.735 0-4.959-2.225-4.959-4.96v-15.033c0-4.143-3.358-7.5-7.5-7.5s-7.5 3.357-7.5 7.5v15.033c0 11.006 8.954 19.96 19.959 19.96h15.989c4.142 0 7.5-3.357 7.5-7.5s-3.358-7.5-7.5-7.5z"/><path d="m101.745 239.336c1.469 1.503 3.416 2.257 5.363 2.257 1.891 0 3.784-.711 5.243-2.138 2.962-2.896 3.015-7.644.12-10.605l-9.287-9.498 8.361-7.764c3.035-2.818 3.211-7.564.393-10.6-2.819-3.034-7.564-3.211-10.6-.393l-14 13c-1.482 1.376-2.346 3.293-2.395 5.315-.049 2.021.721 3.978 2.135 5.424z"/><path d="m156.251 239.336 14.667-15.001c1.414-1.446 2.184-3.402 2.135-5.424s-.913-3.939-2.395-5.315l-14-13c-3.037-2.819-7.781-2.642-10.6.393-2.818 3.035-2.643 7.781.393 10.6l8.361 7.764-9.287 9.498c-2.896 2.962-2.842 7.71.12 10.605 1.459 1.427 3.352 2.138 5.243 2.138 1.948-.001 3.894-.755 5.363-2.258z"/><path d="m135.668 198.826c-4.011-1.021-8.098 1.397-9.124 5.41l-7.928 31.023c-1.025 4.013 1.396 8.098 5.41 9.123.623.159 1.248.235 1.862.235 3.345 0 6.395-2.255 7.261-5.646l7.928-31.023c1.027-4.012-1.395-8.097-5.409-9.122z"/><path d="m108.025 255.39h-37.607c-4.142 0-7.5 3.357-7.5 7.5s3.358 7.5 7.5 7.5h37.607c4.142 0 7.5-3.357 7.5-7.5s-3.358-7.5-7.5-7.5z"/><path d="m192.48 255.39h-37.607c-4.142 0-7.5 3.357-7.5 7.5s3.358 7.5 7.5 7.5h37.607c4.142 0 7.5-3.357 7.5-7.5s-3.358-7.5-7.5-7.5z"/><path d="m108.025 284.187h-37.607c-4.142 0-7.5 3.357-7.5 7.5s3.358 7.5 7.5 7.5h37.607c4.142 0 7.5-3.357 7.5-7.5s-3.358-7.5-7.5-7.5z"/><path d="m192.48 284.187h-37.607c-4.142 0-7.5 3.357-7.5 7.5s3.358 7.5 7.5 7.5h37.607c4.142 0 7.5-3.357 7.5-7.5s-3.358-7.5-7.5-7.5z"/><path d="m108.025 312.984h-37.607c-4.142 0-7.5 3.357-7.5 7.5s3.358 7.5 7.5 7.5h37.607c4.142 0 7.5-3.357 7.5-7.5s-3.358-7.5-7.5-7.5z"/><path d="m199.98 320.484c0-4.143-3.358-7.5-7.5-7.5h-37.607c-4.142 0-7.5 3.357-7.5 7.5s3.358 7.5 7.5 7.5h37.607c4.142 0 7.5-3.358 7.5-7.5z"/><path d="m465.86 173.335h-22.828c-4.142 0-7.5 3.357-7.5 7.5s3.358 7.5 7.5 7.5h21.824v115.031l-44.413-40.953c-2.738-2.525-6.914-2.658-9.806-.313l-28.429 23.04-24.346-27.247c-1.369-1.532-3.306-2.436-5.359-2.499-2.047-.084-4.043.716-5.504 2.161l-53.313 52.67v-121.89h119.347c4.142 0 7.5-3.357 7.5-7.5s-3.358-7.5-7.5-7.5h-120.353c-7.717 0-13.995 6.278-13.995 13.995v138.117c0 7.718 6.278 13.996 13.995 13.996h173.18c7.717 0 13.996-6.278 13.996-13.996v-138.116c0-7.717-6.278-13.996-13.996-13.996zm-113.929 100.432 45.281 50.677h-96.577zm65.397 50.677-25.113-28.105 22.828-18.501 49.813 45.933v.674h-47.528z"/><path d="m300.579 355.476h-14.395c-4.142 0-7.5 3.357-7.5 7.5s3.358 7.5 7.5 7.5h14.395c4.142 0 7.5-3.357 7.5-7.5s-3.358-7.5-7.5-7.5z"/><path d="m472.356 355.476h-149.827c-4.142 0-7.5 3.357-7.5 7.5s3.358 7.5 7.5 7.5h149.827c4.142 0 7.5-3.357 7.5-7.5s-3.358-7.5-7.5-7.5z"/><path d="m391.211 197.834c-15.364 0-27.864 12.5-27.864 27.864s12.5 27.864 27.864 27.864 27.864-12.5 27.864-27.864-12.5-27.864-27.864-27.864zm0 40.729c-7.093 0-12.864-5.771-12.864-12.864s5.771-12.864 12.864-12.864 12.864 5.771 12.864 12.864-5.771 12.864-12.864 12.864z"/></svg>