<?xml version="1.0" encoding="iso-8859-1"?>
<!-- Generator: Adobe Illustrator 19.0.0, SVG Export Plug-In . SVG Version: 6.00 Build 0)  -->
<svg version="1.1" id="Capa_1" xmlns="http://www.w3.org/2000/svg" xmlns:xlink="http://www.w3.org/1999/xlink" x="0px" y="0px"
	 viewBox="0 0 469.333 469.333" style="enable-background:new 0 0 469.333 469.333;" xml:space="preserve">
<g>
	<g>
		<g>
			<path d="M426.667,0h-384C19.135,0,0,19.135,0,42.667v384c0,23.531,19.135,42.667,42.667,42.667h384
				c23.531,0,42.667-19.135,42.667-42.667v-384C469.333,19.135,450.198,0,426.667,0z M448,426.667
				c0,11.76-9.573,21.333-21.333,21.333h-384c-11.76,0-21.333-9.573-21.333-21.333v-169.79c1.168,0.145,2.387,0.098,3.542,0.29
				c0.594,0.104,1.177,0.146,1.76,0.146c5.125,0,9.646-3.698,10.51-8.917c0.969-5.813-2.958-11.313-8.771-12.271
				c-2.315-0.385-4.694-0.346-7.042-0.579V106.667H448V426.667z M448,85.333H21.333V42.667c0-11.76,9.573-21.333,21.333-21.333h384
				c11.76,0,21.333,9.573,21.333,21.333V85.333z"/>
			<circle cx="53.333" cy="53.333" r="10.667"/>
			<circle cx="96" cy="53.333" r="10.667"/>
			<circle cx="138.667" cy="53.333" r="10.667"/>
			<path d="M154.083,254.208l60.027,40.018l9.993,69.951c0.646,4.469,4.021,8.052,8.448,8.948c0.708,0.135,1.417,0.208,2.115,0.208
				c3.698,0,7.198-1.927,9.146-5.177l26.246-43.742l54.691,36.461c1.771,1.177,3.833,1.792,5.917,1.792
				c1.063,0,2.125-0.156,3.167-0.479c3.063-0.958,5.542-3.24,6.74-6.229l85.333-213.333c1.594-3.979,0.635-8.542-2.417-11.552
				s-7.635-3.885-11.594-2.25l-256,106.667c-3.625,1.51-6.135,4.896-6.51,8.813C149,248.219,150.812,252.031,154.083,254.208z
				 M257.625,303.677c-0.018,0.029-0.017,0.061-0.034,0.09c-0.018,0.031-0.052,0.046-0.07,0.077l-16.542,27.573l-5.466-38.272
				l49.185-32.79L257.625,303.677z M396.667,158.281l-71.021,177.552l-44.448-29.625l47.844-76.552
				c2.667-4.26,1.99-9.813-1.615-13.313c-3.583-3.49-9.167-3.979-13.344-1.219L224,275.177l-41.5-27.667L396.667,158.281z"/>
			<path d="M151.656,424.125c6.115,1.688,12.438,2.542,18.802,2.542c6.469,0,12.885-0.875,19.083-2.615
				c5.677-1.583,8.99-7.469,7.396-13.146c-1.594-5.667-7.49-8.969-13.146-7.396c-8.583,2.385-17.865,2.427-26.469,0.052
				c-5.688-1.563-11.552,1.771-13.115,7.448C142.646,416.688,145.979,422.563,151.656,424.125z"/>
			<path d="M109.406,358.49c-5.75,1.281-9.375,6.979-8.104,12.729c2.792,12.542,8.958,24.104,17.833,33.438
				c2.094,2.198,4.917,3.313,7.729,3.313c2.646,0,5.292-0.979,7.354-2.938c4.271-4.063,4.438-10.813,0.375-15.083
				c-6.208-6.521-10.521-14.594-12.458-23.354C120.865,360.844,115.146,357.323,109.406,358.49z"/>
			<path d="M52.177,266.667c8.5,4.698,16.104,10.75,22.583,17.99c2.115,2.354,5.021,3.552,7.948,3.552
				c2.542,0,5.083-0.896,7.115-2.719c4.385-3.938,4.76-10.677,0.833-15.063C82.573,261.396,73.094,253.854,62.49,248
				c-5.177-2.854-11.656-0.969-14.49,4.177C45.146,257.333,47.021,263.823,52.177,266.667z"/>
			<path d="M90.135,309.083c2.938,7.083,4.906,14.563,5.865,22.25l0.823,6.594c0.677,5.396,5.271,9.344,10.573,9.344
				c0.438,0,0.885-0.031,1.333-0.083c5.844-0.729,9.99-6.063,9.26-11.906l-0.823-6.594c-1.188-9.573-3.656-18.917-7.323-27.771
				c-2.25-5.448-8.51-7.99-13.938-5.771C90.469,297.396,87.885,303.646,90.135,309.083z"/>
			<path d="M229.917,375.125c-4.917-3.281-11.531-1.948-14.792,2.958l-3.479,5.208c-1.5,2.25-3.156,4.354-4.969,6.302
				c-4.01,4.313-3.76,11.063,0.552,15.073c2.052,1.906,4.656,2.854,7.26,2.854c2.854,0,5.708-1.146,7.813-3.406
				c2.583-2.781,4.969-5.781,7.104-9l3.469-5.198C236.146,385.021,234.823,378.396,229.917,375.125z"/>
		</g>
	</g>
</g>
<g>
</g>
<g>
</g>
<g>
</g>
<g>
</g>
<g>
</g>
<g>
</g>
<g>
</g>
<g>
</g>
<g>
</g>
<g>
</g>
<g>
</g>
<g>
</g>
<g>
</g>
<g>
</g>
<g>
</g>
</svg>
