<?xml version="1.0" encoding="iso-8859-1"?>
<!-- Generator: Adobe Illustrator 19.0.0, SVG Export Plug-In . SVG Version: 6.00 Build 0)  -->
<svg version="1.1" id="Layer_1" xmlns="http://www.w3.org/2000/svg" xmlns:xlink="http://www.w3.org/1999/xlink" x="0px" y="0px"
	 viewBox="0 0 512 512" style="enable-background:new 0 0 512 512;" xml:space="preserve">
<g>
	<g>
		<path d="M449.891,103.789V7.604c0-4.199-3.404-7.604-7.604-7.604H310.486c-4.2,0-7.604,3.405-7.604,7.604v310.504
			c0,25.85-21.031,46.882-46.882,46.882c-25.85,0-46.881-21.032-46.881-46.882V167.697c0-4.199-3.404-7.604-7.604-7.604
			s-7.604,3.405-7.604,7.604v150.411c0,34.236,27.854,62.09,62.089,62.09c34.237,0,62.09-27.854,62.09-62.09V111.432h45.626
			c4.2,0,7.604-3.405,7.604-7.604c0-4.199-3.404-7.604-7.604-7.604H318.09V15.208h116.593v81.017h-45.621
			c-4.2,0-7.604,3.405-7.604,7.604c0,4.199,3.404,7.604,7.604,7.604h45.621v206.676c0,98.527-80.158,178.684-178.683,178.684
			c-98.527,0-178.684-80.157-178.684-178.684V111.432h116.595v30.918c0,4.199,3.404,7.604,7.604,7.604
			c4.2,0,7.604-3.405,7.604-7.604V7.604c0-4.199-3.404-7.604-7.604-7.604H69.711c-4.2,0-7.604,3.405-7.604,7.604v310.504
			C62.107,425.021,149.086,512,256,512c106.912,0,193.891-86.979,193.891-193.892v-214.24c0-0.013,0.002-0.026,0.002-0.04
			S449.891,103.803,449.891,103.789z M77.315,15.208H193.91v81.017H77.315V15.208z"/>
	</g>
</g>
<g>
</g>
<g>
</g>
<g>
</g>
<g>
</g>
<g>
</g>
<g>
</g>
<g>
</g>
<g>
</g>
<g>
</g>
<g>
</g>
<g>
</g>
<g>
</g>
<g>
</g>
<g>
</g>
<g>
</g>
</svg>
