<svg height="512pt" viewBox="-11 0 512 512.001" width="512pt" xmlns="http://www.w3.org/2000/svg"><path d="m283.1875 268.984375c17.886719 17.890625 27.738281 41.671875 27.738281 66.964844 0 23.488281-8.65625 46.011719-24.375 63.425781-4.660156 5.164062-4.4375 13.074219.5 18.011719l19.078125 19.078125c5.230469 5.226562 13.839844 5.132812 18.886719-.347656 25.207031-27.367188 39.085937-62.941407 39.085937-100.167969 0-41.421875-17.128906-78.917969-43.386718-104.636719-93.066406-92.917969-252.378906-26.273438-252.378906 104.636719 0 37.238281 13.878906 72.808593 39.082031 100.164062 5.042969 5.46875 13.640625 5.605469 18.894531.351563l19.082031-19.082032c4.949219-4.949218 5.140625-12.894531.433594-18.085937-9.078125-10.019531-24.3125-31.570313-24.3125-63.347656-.003906-83.863281 101.976563-126.644531 161.671875-66.964844zm32.148438 155.476563-16.417969-16.421876c15.78125-18.089843 25.128906-40.730468 26.753906-64.585937h23.21875c-1.679687 30.035156-13.433594 58.488281-33.554687 81.007813zm33.558593-96.011719h-23.222656c-1.609375-23.992188-10.925781-46.484375-26.753906-64.589844l16.421875-16.421875c20.164062 22.519531 31.886718 50.820312 33.554687 81.011719zm-125.175781-125.175781c30.175781 1.671874 58.476562 13.394531 81.007812 33.5625-11.328124 11.328124-7.722656 7.722656-16.414062 16.414062-18.109375-15.828125-40.601562-25.144531-64.59375-26.753906zm-15-.007813v23.230469c-23.996094 1.609375-46.488281 10.925781-64.59375 26.753906l-16.339844-16.34375c23.65625-20.75 50.820313-32.042969 80.933594-33.640625zm-75.191406 204.769531-16.425782 16.425782c-20.121093-22.503907-31.875-50.964844-33.558593-81.011719h23.214843c2.089844 31.429687 16.914063 53.324219 26.769532 64.585937zm-26.765625-79.585937h-23.21875c1.667969-30.1875 13.386719-58.484375 33.554687-81.011719l16.421875 16.417969c-15.832031 18.109375-25.148437 40.601562-26.757812 64.59375zm0 0"/><path d="m202.089844 403.558594h28.289062c4.140625 0 7.5-3.359375 7.5-7.5 0-4.144532-3.359375-7.5-7.5-7.5h-28.289062c-4.144532 0-7.5 3.355468-7.5 7.5 0 4.140625 3.355468 7.5 7.5 7.5zm0 0"/><path d="m216.234375 365.785156c23.09375 0 37.386719-25.140625 25.734375-44.964844l32.34375-32.351562c2.929688-2.929688 2.929688-7.679688-.003906-10.605469-2.929688-2.929687-7.679688-2.929687-10.605469 0l-32.34375 32.351563c-11.441406-6.71875-26.425781-5.175782-36.234375 4.628906-18.746094 18.746094-5.414062 50.941406 21.109375 50.941406zm0-44.675781c3.800781 0 7.605469 1.445313 10.5 4.339844 5.789063 5.792969 5.789063 15.210937 0 21-5.789063 5.792969-15.210937 5.792969-21 0-9.324219-9.320313-2.695313-25.339844 10.5-25.339844zm0 0"/><path d="m20.230469 512h178.503906c4.140625 0 7.5-3.359375 7.5-7.5 0-4.144531-3.359375-7.5-7.5-7.5h-178.503906c-2.835938 0-5.230469-2.394531-5.230469-5.230469v-343.601562h402.4375v343.601562c0 2.882813-2.347656 5.230469-5.230469 5.230469h-178.472656c-4.144531 0-7.5 3.359375-7.5 7.5 0 4.144531 3.355469 7.5 7.5 7.5h178.472656c11.15625 0 20.230469-9.074219 20.230469-20.230469v-59.332031h37.054688c11.15625 0 20.230468-9.074219 20.230468-20.230469v-165.082031c0-4.144531-3.359375-7.5-7.503906-7.5-4.140625 0-7.5 3.355469-7.5 7.5v165.082031c0 2.882813-2.34375 5.230469-5.226562 5.230469h-37.054688v-317.644531c0-11.15625-9.074219-20.230469-20.230469-20.230469h-339.921875v-10.957031h402.4375v143.515625c0 4.144531 3.355469 7.5 7.5 7.5 4.140625 0 7.5-3.355469 7.5-7.5 0-11.050782 0-180.890625 0-191.890625 0-11.15625-9.074218-20.230469-20.230468-20.230469-15.683594 0-374.929688 0-391.976563 0-11.136719 0-20.230469 9.054688-20.230469 20.230469v59.332031h-37.054687c-11.15625 0-20.230469 9.074219-20.230469 20.230469v391.976562c0 11.15625 9.074219 20.230469 20.230469 20.230469zm109.339843-497h339.921876c2.832031 0 5.226562 2.394531 5.226562 5.230469v33.375h-345.148438zm-57.285156 5.230469c0-2.835938 2.394532-5.230469 5.230469-5.230469h37.054687v38.605469h-42.285156zm0 74.332031h339.921875c2.882813 0 5.230469 2.347656 5.230469 5.230469v33.375h-345.152344zm-57.285156 5.230469c0-2.835938 2.394531-5.230469 5.230469-5.230469h37.054687v38.605469h-42.285156zm0 0"/></svg>